<svg id="Capa_1" enable-background="new 0 0 512.575 512.575" height="512" viewBox="0 0 512.575 512.575" width="512" xmlns="http://www.w3.org/2000/svg"><g><g><path d="m493.863 302.382c-2.247-3.481-6.889-4.481-10.369-2.235s-4.481 6.888-2.235 10.369c10.674 16.539 16.315 35.737 16.315 55.518 0 56.538-45.997 102.534-102.534 102.534s-102.534-45.997-102.534-102.534 45.997-102.534 102.534-102.534c23.763 0 46.925 8.314 65.218 23.411 3.195 2.637 7.922 2.184 10.559-1.011 2.636-3.195 2.184-7.922-1.011-10.559-19.639-16.207-44.169-25.595-69.574-26.724.058-7.578-.413-14.942-1.432-22.065-3.907-27.306-15.712-51.208-35.085-71.042-23.45-24.007-49.695-35.51-78.004-34.194-18.912.881-38.487 7.521-58.386 19.729 5.046-28.205 13.028-53.594 19.945-72.279 3.35-9.05 2.059-19.182-3.455-27.102-5.517-7.925-14.578-12.657-24.237-12.657-11.729 0-22.369 6.99-27.105 17.809-15.02 34.304-17.627 69.715-16.613 96.051-20.906-13.38-41.473-20.627-61.311-21.551-28.306-1.318-54.553 10.186-78.003 34.194-27.28 27.928-39.387 63.439-35.986 105.55 2.74 33.918 15.361 71.06 37.512 110.393 2.033 3.609 6.608 4.886 10.215 2.855 3.609-2.033 4.887-6.606 2.855-10.215-20.782-36.902-33.103-72.947-35.631-104.24-3.037-37.595 7.65-69.174 31.765-93.861 38.293-39.202 83.053-39.779 133.035-1.716 11.67 8.887 27.97 8.887 39.639 0 49.982-38.063 94.742-37.486 133.035 1.716 21.858 22.377 32.63 50.15 32.294 82.917-60.258 4.979-107.771 55.605-107.771 117.125 0 25.519 8.179 49.161 22.047 68.451-10.4 11.99-23.024 24.508-38.613 30.631-11.561 4.542-33.453 5.04-47.615-1.459-8.385-3.847-18.004-3.848-26.392 0-14.162 6.498-36.053 6-47.615 1.459-16.688-6.555-29.982-20.442-40.786-33.162-9.962-11.73-19.511-24.277-28.372-37.282l-.954-1.406c-2.326-3.427-6.99-4.322-10.417-1.996-3.428 2.326-4.321 6.99-1.996 10.417l.963 1.418c9.167 13.453 19.039 26.426 29.343 38.558 12.01 14.141 26.954 29.644 46.734 37.414 7.619 2.992 17.162 4.462 26.86 4.461 11.63 0 23.483-2.114 32.495-6.249 4.411-2.025 9.469-2.024 13.881 0 16.528 7.583 42.601 8.368 59.355 1.788 17.669-6.941 31.472-20.05 42.778-32.848 21.465 22.96 52.002 37.338 85.838 37.338 64.809 0 117.534-52.726 117.534-117.534-.001-22.672-6.472-44.683-18.713-63.651zm-283.588-149.631c-5.526 3.864-12.762 4.22-18.599 1.055-2.098-25.194-1.553-64.225 14.537-100.973 2.347-5.361 7.593-8.825 13.365-8.825 4.824 0 9.171 2.27 11.925 6.227 2.751 3.952 3.37 8.808 1.698 13.325-8.301 22.428-18.102 54.202-22.926 89.191z"/><path d="m414.578 336.764c-1.355-3.294-4.531-5.421-8.092-5.421-.003 0-.007 0-.01 0-3.565.004-6.741 2.139-8.09 5.438-.023.056-.045.113-.067.169l-20.726 54.419c-1.474 3.871.468 8.204 4.339 9.678 3.872 1.476 8.204-.469 9.678-4.339l3.322-8.723h22.947l3.284 8.701c1.134 3.003 3.987 4.854 7.019 4.854.88 0 1.775-.156 2.646-.485 3.875-1.462 5.832-5.79 4.369-9.665l-20.537-54.42c-.026-.069-.053-.137-.082-.206zm-13.932 36.223 5.813-15.263 5.76 15.263z"/><path d="m455.622 330.527c-4.142 0-7.5 3.358-7.5 7.5v55.15c0 3.653 2.632 6.775 6.233 7.392.532.091.92.158 7.127.158 2.962 0 7.25-.015 13.509-.05 4.142-.023 7.481-3.4 7.458-7.542s-3.421-7.441-7.542-7.458c-3.593.02-8.082.038-11.786.044v-47.694c.001-4.142-3.357-7.5-7.499-7.5z"/><path d="m342.73 345.527c4.028 0 7.913 1.186 11.232 3.428 3.433 2.319 8.095 1.416 10.413-2.017 2.319-3.432 1.416-8.094-2.017-10.413-5.809-3.924-12.597-5.999-19.629-5.999-19.353 0-35.098 15.745-35.098 35.098s15.745 35.098 35.098 35.098c7.751 0 14.714-2.551 20.137-7.38 1.062-.946 2.07-1.986 2.996-3.09 2.662-3.174 2.247-7.904-.926-10.566-3.174-2.662-7.905-2.248-10.566.926-.462.551-.961 1.066-1.481 1.53-2.668 2.376-6.086 3.581-10.159 3.581-11.082 0-20.098-9.016-20.098-20.098s9.016-20.098 20.098-20.098z"/></g></g></svg>