<svg id="Capa_1" enable-background="new 0 0 512.002 512.002" height="512" viewBox="0 0 512.002 512.002" width="512" xmlns="http://www.w3.org/2000/svg"><g><path d="m111.945 243.643-93.854 45.837c-11.824 5.774-18.091 18.759-18.091 31.863v109.261c0 7.586 4.404 14.64 11.223 17.97l87.521 42.742c13.306 6.498 29.539 7.041 43.955 0l30.435-14.863c3.723-1.818 5.266-6.309 3.448-10.031s-6.312-5.266-10.03-3.448l-30.435 14.863c-2.506 1.224-5.165 2.144-7.896 2.742v-117.604c10.499-5.127 86.041-42.019 97.493-47.612.48 1.95.728 3.958.728 5.979v109.262c0 1.896-1.101 3.66-2.805 4.492l-25.615 12.51c-3.723 1.818-5.266 6.309-3.448 10.03 1.818 3.723 6.312 5.266 10.03 3.448l25.615-12.51c6.817-3.33 11.223-10.383 11.223-17.97v-109.261c0-13.221-6.35-26.129-18.089-31.862 0 0 0 0-.001 0l-93.856-45.837c-5.576-2.723-11.974-2.724-17.551-.001zm1.276 236.937c-2.729-.598-5.39-1.519-7.896-2.742l-87.52-42.742c-1.703-.832-2.805-2.596-2.805-4.492v-109.261c0-2.021.247-4.03.729-5.98l97.492 47.612zm103.63-177.582-96.13 46.947-96.129-46.947c.027-.013.054-.027.081-.04l93.854-45.836c1.394-.68 2.993-.681 4.389 0l93.854 45.836c.027.013.053.027.081.04z"/><path d="m512.002 321.343c0-6.993-1.845-13.891-5.336-19.95-.004-.007-.007-.015-.011-.022-2.979-5.163-7.385-9.275-12.741-11.891l-93.856-45.837c-5.576-2.723-11.973-2.722-17.551 0l-93.854 45.836c-11.824 5.774-18.091 18.759-18.091 31.863v109.261c0 7.586 4.404 14.64 11.223 17.97l87.521 42.742c13.742 6.71 29.986 6.821 43.955 0l87.521-42.742c6.817-3.33 11.223-10.383 11.223-17.97v-109.26zm-128.221 159.237c-2.729-.598-5.39-1.519-7.896-2.742l-87.52-42.742c-1.704-.833-2.806-2.596-2.806-4.492v-109.261c0-2.021.247-4.03.729-5.98l97.492 47.612v117.605zm-88.629-177.582c.027-.013.054-.027.081-.04l93.854-45.836c1.394-.68 2.993-.681 4.389 0l93.854 45.836c.027.013.054.027.081.04l-96.13 46.947zm201.85 127.606c0 1.896-1.101 3.66-2.805 4.492l-87.521 42.742c-2.506 1.224-5.166 2.144-7.896 2.742v-117.605c10.499-5.127 86.041-42.019 97.493-47.612.48 1.95.728 3.958.728 5.979v109.262z"/><path d="m369.222 142.104c4.143 0 7.5-3.358 7.5-7.5v-39.256c0-13.069-6.239-26.074-18.09-31.863l-93.855-45.837c-5.577-2.722-11.974-2.723-17.551 0l-93.854 45.836c-11.844 5.784-18.091 18.787-18.091 31.863v109.263c0 7.586 4.404 14.639 11.223 17.97l87.521 42.743c13.774 6.727 30.023 6.804 43.955 0l87.521-42.743c6.817-3.33 11.223-10.383 11.223-17.97v-35.005c0-4.142-3.357-7.5-7.5-7.5s-7.5 3.358-7.5 7.5v35.005c0 1.896-1.101 3.66-2.805 4.492l-87.521 42.743c-2.506 1.224-5.165 2.144-7.896 2.742v-117.607c10.499-5.127 86.041-42.019 97.493-47.612.48 1.95.728 3.958.728 5.979v39.256c-.001 4.143 3.356 7.501 7.499 7.501zm-120.721 112.481c-2.73-.598-5.39-1.518-7.896-2.742l-87.52-42.742c-1.704-.833-2.806-2.596-2.806-4.492v-109.261c0-2.021.247-4.03.729-5.98l97.492 47.612v117.605zm7.5-130.635c-14.03-6.852-82.33-40.207-96.129-46.946.027-.014.054-.027.081-.04l93.854-45.836c1.396-.681 2.994-.68 4.388 0l93.854 45.836c.026.013.054.026.081.04-48.4 23.637-54.74 26.733-96.129 46.946z"/></g></svg>